<svg xmlns:xlink="http://www.w3.org/1999/xlink" version="1.1" class="highcharts-root" style="font-family: -apple-system, BlinkMacSystemFont, &quot;Segoe UI&quot;, Roboto, Helvetica, Arial, &quot;Apple Color Emoji&quot;, &quot;Segoe UI Emoji&quot;, &quot;Segoe UI Symbol&quot;, sans-serif; font-size: 1rem;" xmlns="http://www.w3.org/2000/svg" width="600" height="400" viewBox="0 0 600 400" role="img" aria-label="Saudi Arabia"><desc>Created with Highcharts 12.3.0</desc><defs><filter id="highcharts-drop-shadow-1"><feDropShadow dx="1" dy="1" flood-color="#000000" flood-opacity="0.75" stdDeviation="2.5"></feDropShadow></filter><clipPath id="highcharts-rxcvho6-56-"><rect x="0" y="0" width="580" height="289" fill="none"></rect></clipPath><clipPath id="highcharts-rxcvho6-65-"><rect x="0" y="0" width="580" height="289" fill="none"></rect></clipPath></defs><rect fill="#ffffff" class="highcharts-background" filter="none" x="0" y="0" width="600" height="400" rx="0" ry="0"></rect><rect fill="none" class="highcharts-plot-background" x="10" y="54" width="580" height="289" filter="none"></rect><rect fill="none" class="highcharts-plot-border" data-z-index="1" stroke="#cccccc" stroke-width="0" x="10" y="54" width="580" height="289"></rect><g class="highcharts-series-group" data-z-index="3" filter="none"><g class="highcharts-series highcharts-series-0 highcharts-map-series highcharts-color-0" data-z-index="0.1" opacity="1" transform="translate(10,54) scale(1 1)" clip-path="url(#highcharts-rxcvho6-56-)"><g stroke-width="0.06063327160249996" transform="translate(285.7676200834041,599.8719980252617) scale(16.4925951308682 -16.4925951308682)"><path fill="#a1d99b" d="M -3.6445610571387173 19.463952118564205 L -3.682012097946202 19.48940697406732 L -3.6495490283919225 19.53414964498851 L -3.6077132184042804 19.50509438524383 L -3.6445610571387173 19.463952118564205 L -3.6445610571387173 19.463952118564205 Z" stroke="#606060" opacity="1" stroke-linejoin="round" stroke-linecap="round" filter="none" class="highcharts-point highcharts-null-point highcharts-color-0 highcharts-key-sa-4293"></path><path fill="#a1d99b" d="M -8.389725785301744 29.239669160997458 L -8.562715836281177 29.32687931181404 L -8.532977323988623 29.366817449978576 L -8.426092743267782 29.26277074187098 L -8.338914539015466 29.247036158963432 L -8.169896924021376 29.088999721175508 L -8.180790846045609 29.011326955808574 L -8.278461103815479 29.170297386839504 L -8.389725785301744 29.239669160997458 L -8.389725785301744 29.239669160997458 M -5.953597998562303 31.999076942828367 L -5.898038738231389 31.95482273685854 L -5.587481633998524 31.866734262671297 L -5.500973986415656 31.82138307283835 L -5.202841457456282 31.557059540494624 L -5.091243783749317 31.072292378916018 L -4.856644616873977 30.872281790136153 L -4.869454501145776 30.80312714242503 L -5.027861972602096 30.660950019376884 L -5.221929077285406 30.29935289726086 L -5.314273168784449 30.382934125614742 L -5.725439654439674 30.33512012140813 L -5.911302067845314 30.36215282204898 L -6.0254637018649815 30.45935924989154 L -6.204055941652116 30.550877557856474 L -6.281316863444847 30.630989297669313 L -6.282995618852688 30.549258021176115 L -6.515367761183724 30.594940266405995 L -6.667016616945692 30.50650577613795 L -6.789077270427659 30.766683934630546 L -7.045218764582131 30.86497932388714 L -7.152994908829611 31.140540614262875 L -7.232343465658691 31.20395619279215 L -7.421176027546024 31.114819783343215 L -7.556722929823049 31.132722052401835 L -7.759083146501426 31.212045570524126 L -8.015406317281334 31.10840806227625 L -8.132569544666197 31.08747155249475 L -8.175617232795334 31.025579002324488 L -8.04372831319361 31.014250549729763 L -7.983601695761258 30.94451595495099 L -8.003549792070546 30.63911082425547 L -7.943951614745058 30.449290997458423 L -7.749977433037973 30.349372552597995 L -7.7573536244935335 30.255768753905386 L -7.8533680026317825 30.06971902037233 L -7.765409433487281 29.780974722595484 L -7.669555859118353 29.81389103869408 L -7.496050588076661 29.701642919102994 L -7.426984692956336 29.54823744396915 L -7.261317748092947 29.35670826636644 L -7.198663546023955 29.111589941851392 L -7.090721427835172 29.08861553476222 L -7.0582345751059945 29.026066426096754 L -7.104636818753453 28.77620244831916 L -7.11270587887342 28.4130711848512 L -7.17370510364897 28.334454267835014 L -7.383253625272054 28.32280991112078 L -7.485298708330764 28.23084849747077 L -7.6936164058213405 28.20741679695792 L -7.7493032718376265 28.080025737403343 L -7.963653456745816 28.436619247209116 L -7.855216581408336 28.451325061942438 L -7.82631613027748 28.552347085303694 L -7.862380084584117 28.808421142838316 L -7.977930463235067 28.957717638748584 L -8.124616639742927 29.323029971697853 L -8.234283592057007 29.453112185683196 L -8.328437951752973 29.455284095435463 L -8.382227933002188 29.569955411269998 L -8.337608798193957 29.75352576056278 L -8.491961258714745 29.827385608158167 L -8.62639440238256 30.116116318143852 L -8.757645094746593 30.444921620823774 L -8.878986306258366 30.59559457373835 L -8.932277700842965 30.766335904754104 L -9.11491381377328 30.98579473583091 L -9.126289713183288 31.09462394377111 L -9.353762876442811 31.4029612173257 L -9.408091970742488 31.603777592100926 L -9.613237696258151 31.972305796374467 L -9.697013526078283 32.03935690882107 L -9.64221020222312 32.08604986557641 L -9.796652237145638 32.17045146985943 L -9.922754669502014 32.13426388422288 L -9.977254639934689 32.1766761037078 L -10.191384787288278 32.17519053124243 L -10.231820595108148 32.10317746295009 L -10.247836874888252 32.217866837660644 L -10.18358176047013 32.251419792567276 L -10.151943918886005 32.37125984616182 L -10.004736476917756 32.637928387734846 L -10.017961016825927 32.79087712423487 L -9.936943179167839 33.02771727332547 L -9.790011555407643 33.02391948751113 L -9.57475021125778 32.97521418530678 L -9.420991493702537 33.039466162607205 L -9.220994076277979 33.06576807583903 L -8.953258946388143 33.06861559870937 L -8.76713323858194 33.01092834603503 L -8.674106185811818 32.93329259274304 L -8.44415370694702 32.592214893693196 L -8.3538513250926 32.56215500574742 L -8.009599687184778 32.63375015318092 L -7.877532529079849 32.61723962267683 L -7.65281307116722 32.53799089657058 L -7.435976439710737 32.53458192270534 L -7.333989900720889 32.71567629539517 L -7.162211433960396 32.83206309675991 L -7.1107164604149595 32.76302463772665 L -7.1286354179097575 32.42379641351543 L -7.067095697134793 32.26883763689097 L -6.962823757489937 32.183216931469666 L -6.797462227594185 32.12598682295852 L -6.569089625061137 32.09552758709055 L -6.477489736279468 32.12248718065805 L -6.343914094792159 32.083038227134466 L -6.284868681470277 31.984423373579233 L -6.043789659093434 32.048385209034784 L -5.953597998562303 31.999076942828367 L -5.953597998562303 31.999076942828367 Z" stroke="#606060" opacity="1" stroke-linejoin="round" stroke-linecap="round" filter="none" class="highcharts-point highcharts-null-point highcharts-color-0 highcharts-name-tabuk highcharts-key-sa-tb"></path><path fill="#a1d99b" d="M -3.4222719714652703 19.292181961189936 L -3.3037444455514096 19.277222771984196 L -3.261617753355641 19.35689773100164 L -3.1162836090553583 19.23285126458334 L -3.1527136278220387 19.102157771009477 L -3.2390187877990377 19.16011444043531 L -3.224185164862478 19.222891696381602 L -3.3415477269922365 19.192189576526058 L -3.5483991704221314 19.36349487480461 L -3.5685644091792557 19.45684320189771 L -3.4956692809818413 19.413053812252492 L -3.4222719714652703 19.292181961189936 L -3.4222719714652703 19.292181961189936 M -3.3681322466712285 19.50294692353944 L -3.377884425969243 19.37001873458772 L -3.4164549753254336 19.349876886932115 L -3.488083162595709 19.44966761484546 L -3.3681322466712285 19.50294692353944 L -3.3681322466712285 19.50294692353944 M -3.5173116130755226 21.030072915691797 L -3.357855006952458 21.024580502029718 L -3.359707028435483 20.750288033342983 L -3.202582816281392 20.72579911932925 L -3.1100176957908623 20.587466583913123 L -2.8971256445791695 20.562132891127394 L -2.6263949139840146 20.286019490568947 L -2.561035481215586 20.33033722773035 L -2.5089324289707315 20.51303051547796 L -2.451926067947613 20.597723095071863 L -2.3066597598492122 20.64955111165475 L -2.271038096721374 20.510907383013784 L -2.080819896961366 20.282536515530367 L -1.998818492617788 20.253417778017802 L -1.8763135436932137 20.078638724022614 L -2.0660496127946124 19.906204015400355 L -1.9778630540496713 19.82273811289681 L -2.076800468464275 19.77683733401432 L -2.130490875872554 19.462423234795693 L -2.027586726480818 19.291050731769964 L -2.076401373058479 19.167310727515407 L -2.1614712863124574 19.180794871111093 L -2.2153413895898186 19.029094933370875 L -2.3555623632679445 18.96813859248847 L -2.3928891295910866 18.882813265142513 L -2.4811349649431316 18.849186289877526 L -2.4792606862778577 18.961386529069216 L -2.5470963173046863 19.067729093579377 L -2.5316212079927642 19.184903320568065 L -2.636451727366614 19.346195078802435 L -2.7359867937205866 19.418079905392386 L -2.7289215458306013 19.558077288248057 L -2.81992291500445 19.59831413371321 L -2.8776231421270753 19.73775725071323 L -2.9444214277422445 19.75132981124326 L -2.9783472246461447 20.06355598276102 L -3.425988421449569 20.47910586818205 L -3.5836498314839123 20.582531063258514 L -3.70434032203752 20.821509345386986 L -3.6579230987963625 20.902477674463487 L -3.5173116130755226 21.030072915691797 L -3.5173116130755226 21.030072915691797 Z" stroke="#606060" opacity="1" stroke-linejoin="round" stroke-linecap="round" filter="none" class="highcharts-point highcharts-null-point highcharts-color-0 highcharts-name-jizan highcharts-key-sa-jz"></path><path fill="#a1d99b" d="M 2.460994299837527 19.65318834309674 L 2.210542398242632 19.500379131975 L 1.97553558820731 19.49530152439654 L 1.734370250805468 19.823175689424907 L 1.6939065051909583 19.845458086380184 L 1.283506049201922 19.783560362377347 L 0.33824949188036385 19.876371173645158 L 0.056883155334214355 20.005471480334204 L -0.4940900577022311 20.009787733442806 L -0.58343354698439 19.98037233554413 L -0.750693728973735 19.995125817486453 L -1.0680073078374606 19.92359685377775 L -1.443022614013021 19.921540441554026 L -1.5624546502257801 20.02599029207902 L -1.529720377711174 20.170838880105762 L -1.5529013293376426 20.297000536732103 L -1.5159132160697506 20.644494040893832 L -1.5538725415181438 20.835350681571082 L -1.4926112105376705 20.96922181669421 L -1.202199594849857 21.247693505808527 L -1.103634767325742 21.41100405612682 L -0.8178423077007478 21.546993436509492 L -0.7510003652599628 21.667028911722486 L -0.7870412575079 21.935851537479607 L -0.7292073729575348 22.054134424566513 L -0.6343459185117344 22.11646133894967 L -0.6224918041519713 22.316896099115393 L -0.3308763349720776 22.13288868942228 L -0.1022886551758953 22.050597194149912 L 0.16830150391669188 22.033221156502783 L 2.6098471296853467 22.319861994884917 L 2.7452192971954736 22.362459436846365 L 2.4609651381356694 19.654938814404385 L 2.460994299837527 19.65318834309674 L 2.460994299837527 19.65318834309674 Z" stroke="#606060" opacity="1" stroke-linejoin="round" stroke-linecap="round" filter="none" class="highcharts-point highcharts-null-point highcharts-color-0 highcharts-name-najran highcharts-key-sa-nj"></path><path fill="#a1d99b" d="M 2.7452192971954736 22.362459436846365 L 2.6098471296853467 22.319861994884917 L 0.16830150391669188 22.033221156502783 L -0.1022886551758953 22.050597194149912 L -0.3308763349720776 22.13288868942228 L -0.6224918041519713 22.316896099115393 L -1.0456251445550766 22.711441157972835 L -1.2207559178448315 22.977602935372804 L -1.1858927049408001 23.22983267291806 L -1.0881905351210157 23.453658507386123 L -1.342000215005123 23.80391644321512 L -1.490541035650349 23.941116371921385 L -1.7548295326172794 24.346001808695142 L -1.7731711593101962 24.43841883764402 L -1.7209129324822006 24.644749463768335 L -1.7294792756488686 24.82918558010663 L -1.642820528092957 25.0455020197269 L -1.687969991991944 25.416312995880098 L -1.657617096907826 25.62279263177715 L -1.8348974444695572 25.687545808780296 L -2.000529005275026 25.65502655729979 L -2.137086703165112 25.70568592721897 L -2.163503817447272 25.80167768590437 L -2.1371997470075117 25.98201991189681 L -2.2320558264469406 26.075589939201542 L -2.6572149617213046 26.107275892204733 L -2.8030697024030293 26.19525023738217 L -2.92689405540905 26.512301342582035 L -3.0351944899183634 26.929887962123527 L -3.1616248160392946 27.076895541563562 L -3.149227155033467 27.250369550235398 L -3.1252671775315046 27.75196448985071 L -3.023113755508074 27.977321591298708 L -2.935709319938509 28.117924643452827 L -2.825180387792821 28.16081198372929 L -2.6055704468277177 28.067922036131943 L -2.4245547780955534 28.0455434012935 L -2.230161869608028 28.06488117418649 L -2.1061140571282246 28.038628858672766 L -1.9801931996396653 28.14101767500606 L -2.024436002392546 28.28758623045226 L -1.9060669104337447 28.47354396515681 L -1.7636288793280404 28.59501418109959 L -1.4287903647186244 28.671080818449315 L -1.2386344605339303 28.8030297664346 L -1.1176287667067824 28.98095693236562 L -0.9769663063795455 29.02332964668839 L -0.7656035938837936 28.994199014417397 L -0.39898189888886215 29.011768318816298 L -0.3837806685357249 29.206327426880076 L -0.4418626177686975 29.355937866471823 L -0.43312385085565863 29.477551959244206 L -0.7292513324212961 29.9237275692329 L -0.7112188260006274 30.191338388086514 L -0.580073339262279 30.26721636042388 L -0.42591048938356 30.454427712941953 L -0.28689266657275747 30.528835601123003 L -0.2927642768795858 30.688834422384822 L -0.4743649218884246 30.825000630791983 L -0.4800209482676126 30.979826312543064 L -0.3639943343757044 31.13255344143769 L -0.3082653424891231 31.15329290119674 L -0.20733185106178656 31.085253312756127 L -0.11855156578582163 31.166913848300684 L 0.044378934930842245 31.010300183969044 L 0.1291747149564535 30.834673466619314 L 0.40867507828110855 30.673480095925157 L 0.5494806423026452 30.649626693317234 L 0.7450723494860487 30.457531280127533 L 0.851072299554358 30.409463113479408 L 1.0148955531316535 30.40536272736241 L 1.1625855293149983 30.349158101234583 L 1.4091537123236204 30.174131072439547 L 1.7146557842926173 30.160223216787312 L 1.9485270984126395 29.928651182979664 L 2.266878088536429 29.804895178190627 L 2.3292659472130763 29.687736688711038 L 2.377446664859996 28.209778713756386 L 2.4256958236691752 28.101158038849704 L 2.7849560885690114 27.852480025262086 L 3.0439807978884432 27.600748232133814 L 3.2010228782699577 27.305406340356406 L 3.2181784318159448 26.92701122106919 L 2.980810707274247 24.542002033746467 L 2.7452192971954736 22.362459436846365 L 2.7452192971954736 22.362459436846365 Z" stroke="#606060" opacity="1" stroke-linejoin="round" stroke-linecap="round" filter="none" class="highcharts-point highcharts-null-point highcharts-color-0 highcharts-name-ar-riyad highcharts-key-sa-ri"></path><path fill="#a1d99b" d="M -3.023113755508074 27.977321591298708 L -3.1252671775315046 27.75196448985071 L -3.149227155033467 27.250369550235398 L -3.3461497283575854 27.268834168502405 L -3.4023434039546574 27.226747843574095 L -3.379866631199595 27.01421606578488 L -3.4811266619178944 26.874200792684853 L -3.795746538862972 26.72941883297161 L -3.877721772255646 26.615214639617914 L -3.728971098356269 26.515610202776408 L -3.761741082097631 26.406988995335094 L -3.882428779817622 26.36680974792702 L -4.0862541976809705 26.18832040949766 L -4.38405546651844 25.96604123197614 L -4.531328554313615 25.782909649607124 L -4.787396220947496 25.82437359695181 L -4.991490083243549 25.69404693534227 L -5.109065879896196 25.708672242289204 L -5.14902763370327 25.967484523378403 L -5.300272795990989 26.049584084918724 L -5.2481172806169925 26.242380883302758 L -5.273341264154949 26.425881586649986 L -5.409951250753475 26.429320100216177 L -5.707731710758304 26.357599808953356 L -5.756485512381695 26.472607974841054 L -5.986969960741772 26.478735019391593 L -6.2844449586691935 26.80297823445242 L -6.543435139560812 26.781752155915083 L -6.580400817994194 26.94869408237388 L -6.64123024776486 26.92373157833059 L -6.717881658354572 27.191726545837973 L -6.8002473648798745 27.291350855471745 L -6.976804068227745 27.41656165558083 L -7.079577915517969 27.526079496773523 L -7.288759896466331 27.62553531738692 L -7.470874066602894 27.789969868837243 L -7.519879177790865 27.745633345930553 L -7.626531075668363 27.772293436152815 L -7.713465804777966 27.886670016567106 L -7.681525652768698 27.9666719582167 L -7.7493032718376265 28.080025737403343 L -7.6936164058213405 28.20741679695792 L -7.485298708330764 28.23084849747077 L -7.383253625272054 28.32280991112078 L -7.17370510364897 28.334454267835014 L -7.11270587887342 28.4130711848512 L -7.104636818753453 28.77620244831916 L -7.0582345751059945 29.026066426096754 L -7.090721427835172 29.08861553476222 L -7.198663546023955 29.111589941851392 L -7.261317748092947 29.35670826636644 L -7.426984692956336 29.54823744396915 L -7.496050588076661 29.701642919102994 L -7.669555859118353 29.81389103869408 L -7.765409433487281 29.780974722595484 L -7.8533680026317825 30.06971902037233 L -7.7573536244935335 30.255768753905386 L -7.749977433037973 30.349372552597995 L -7.943951614745058 30.449290997458423 L -8.003549792070546 30.63911082425547 L -7.983601695761258 30.94451595495099 L -8.04372831319361 31.014250549729763 L -8.175617232795334 31.025579002324488 L -8.132569544666197 31.08747155249475 L -8.015406317281334 31.10840806227625 L -7.759083146501426 31.212045570524126 L -7.556722929823049 31.132722052401835 L -7.421176027546024 31.114819783343215 L -7.232343465658691 31.20395619279215 L -7.152994908829611 31.140540614262875 L -7.045218764582131 30.86497932388714 L -6.789077270427659 30.766683934630546 L -6.667016616945692 30.50650577613795 L -6.515367761183724 30.594940266405995 L -6.282995618852688 30.549258021176115 L -6.281316863444847 30.630989297669313 L -6.204055941652116 30.550877557856474 L -6.0254637018649815 30.45935924989154 L -5.911302067845314 30.36215282204898 L -5.725439654439674 30.33512012140813 L -5.314273168784449 30.382934125614742 L -5.221929077285406 30.29935289726086 L -5.201640443037599 30.17680516331209 L -5.259194405925239 29.97721552344236 L -5.1288793521060025 29.95315669434905 L -5.095898742682415 29.887576337241807 L -5.1637987789235416 29.521417451903478 L -5.122512666019619 29.22601565401071 L -5.143870454697237 28.9329794993398 L -5.1011555542968905 28.839258177969146 L -4.982498746869244 28.810602053802942 L -4.73196820446821 28.89047518637479 L -4.467051381256985 28.906012383453074 L -4.330761846267894 29.037265415394817 L -4.21808331757891 29.089407937170435 L -4.046233450867651 29.09122585004762 L -3.6838091165313465 29.01331239533061 L -3.486284307426155 28.950841992429837 L -3.4423454722951687 28.862847212261862 L -3.468332435140223 28.57849322658947 L -3.3954146335863715 28.465476793062003 L -3.236824061836534 28.409561934306062 L -3.1569580721188184 28.12623963686864 L -3.023113755508074 27.977321591298708 L -3.023113755508074 27.977321591298708 Z" stroke="#606060" opacity="1" stroke-linejoin="round" stroke-linecap="round" filter="none" class="highcharts-point highcharts-null-point highcharts-color-0 highcharts-name-al-madinah highcharts-key-sa-md"></path><path fill="#a1d99b" d="M -0.3082653424891231 31.15329290119674 L -0.3639943343757044 31.13255344143769 L -0.4800209482676126 30.979826312543064 L -0.4743649218884246 30.825000630791983 L -0.5948679279361522 30.682858943969748 L -0.6653439443715122 30.657097638835054 L -0.8988398396748967 30.7123458516496 L -1.0939523662320696 30.889436622715042 L -1.1967468504607137 30.947701597450582 L -1.2899384181299798 30.92071892684952 L -1.6661198339511607 30.733460270896053 L -1.8230973832980768 30.59632908530114 L -1.9351130388105549 30.436139394674537 L -2.1625848381519144 30.342164379263238 L -2.545373698365613 30.063583235059763 L -2.75042736042759 29.791113986208916 L -2.867304909603542 29.781331283453333 L -2.9406406479167058 29.66467051300067 L -2.9345434304976856 29.46116882331115 L -3.1283311494616775 29.481072143083903 L -3.187857139523436 29.345120372855188 L -3.1428842100661782 29.20852108810658 L -3.3492277342260657 29.156013385294173 L -3.6838091165313465 29.01331239533061 L -4.046233450867651 29.09122585004762 L -4.21808331757891 29.089407937170435 L -4.330761846267894 29.037265415394817 L -4.467051381256985 28.906012383453074 L -4.73196820446821 28.89047518637479 L -4.982498746869244 28.810602053802942 L -5.1011555542968905 28.839258177969146 L -5.143870454697237 28.9329794993398 L -5.122512666019619 29.22601565401071 L -5.1637987789235416 29.521417451903478 L -5.095898742682415 29.887576337241807 L -5.1288793521060025 29.95315669434905 L -5.259194405925239 29.97721552344236 L -5.201640443037599 30.17680516331209 L -5.221929077285406 30.29935289726086 L -5.027861972602096 30.660950019376884 L -4.869454501145776 30.80312714242503 L -4.856644616873977 30.872281790136153 L -5.091243783749317 31.072292378916018 L -5.202841457456282 31.557059540494624 L -5.500973986415656 31.82138307283835 L -5.587481633998524 31.866734262671297 L -5.898038738231389 31.95482273685854 L -5.953597998562303 31.999076942828367 L -5.795619181979727 32.14035298060706 L -5.420080615926893 32.30080816020222 L -5.248480362075064 32.34283509630053 L -4.881288177639877 32.53474484383429 L -4.5088085836442025 32.673441621564095 L -4.427649929500408 32.65854577496759 L -4.2399733109061275 32.58975194509044 L -3.7204456754538873 32.69468556014175 L -3.5797311712460145 32.69261525452868 L -3.3471822213759284 32.609942115768675 L -3.0138855619939022 32.63693410698479 L -2.685036606385307 32.551556487730345 L -2.598288018768743 32.497579494808164 L -2.4219333478945684 32.309615612281696 L -2.3078289777646517 32.28497127428489 L -2.081684880805523 32.35968959443806 L -2.0251560982381926 32.17592699973576 L -1.9705856407800033 32.12809502719481 L -1.7598559281315391 32.114739333441655 L -1.5722806879430946 32.04451095861306 L -1.3581523865795582 32.150165452791896 L -1.2951823709683932 32.09904286450382 L -1.1318066467176977 31.799834054908608 L -1.051417071262254 31.57985844534028 L -0.9082864126196905 31.465699979116753 L -0.6081370866251017 31.417039127686618 L -0.5074971927454474 31.362681629548312 L -0.3082653424891231 31.15329290119674 L -0.3082653424891231 31.15329290119674 Z" stroke="#606060" opacity="1" stroke-linejoin="round" stroke-linecap="round" filter="none" class="highcharts-point highcharts-null-point highcharts-color-0 highcharts-name-ha'il highcharts-key-sa-ha"></path><path fill="#a1d99b" d="M -3.6838091165313465 29.01331239533061 L -3.3492277342260657 29.156013385294173 L -3.1428842100661782 29.20852108810658 L -3.187857139523436 29.345120372855188 L -3.1283311494616775 29.481072143083903 L -2.9345434304976856 29.46116882331115 L -2.9406406479167058 29.66467051300067 L -2.867304909603542 29.781331283453333 L -2.75042736042759 29.791113986208916 L -2.545373698365613 30.063583235059763 L -2.1625848381519144 30.342164379263238 L -1.9351130388105549 30.436139394674537 L -1.8230973832980768 30.59632908530114 L -1.6661198339511607 30.733460270896053 L -1.2899384181299798 30.92071892684952 L -1.1967468504607137 30.947701597450582 L -1.0939523662320696 30.889436622715042 L -0.8988398396748967 30.7123458516496 L -0.6653439443715122 30.657097638835054 L -0.5948679279361522 30.682858943969748 L -0.4743649218884246 30.825000630791983 L -0.2927642768795858 30.688834422384822 L -0.28689266657275747 30.528835601123003 L -0.42591048938356 30.454427712941953 L -0.580073339262279 30.26721636042388 L -0.7112188260006274 30.191338388086514 L -0.7292513324212961 29.9237275692329 L -0.43312385085565863 29.477551959244206 L -0.4418626177686975 29.355937866471823 L -0.3837806685357249 29.206327426880076 L -0.39898189888886215 29.011768318816298 L -0.7656035938837936 28.994199014417397 L -0.9769663063795455 29.02332964668839 L -1.1176287667067824 28.98095693236562 L -1.2386344605339303 28.8030297664346 L -1.4287903647186244 28.671080818449315 L -1.7636288793280404 28.59501418109959 L -1.9060669104337447 28.47354396515681 L -2.024436002392546 28.28758623045226 L -1.9801931996396653 28.14101767500606 L -2.1061140571282246 28.038628858672766 L -2.230161869608028 28.06488117418649 L -2.4245547780955534 28.0455434012935 L -2.6055704468277177 28.067922036131943 L -2.825180387792821 28.16081198372929 L -2.935709319938509 28.117924643452827 L -3.023113755508074 27.977321591298708 L -3.1569580721188184 28.12623963686864 L -3.236824061836534 28.409561934306062 L -3.3954146335863715 28.465476793062003 L -3.468332435140223 28.57849322658947 L -3.4423454722951687 28.862847212261862 L -3.486284307426155 28.950841992429837 L -3.6838091165313465 29.01331239533061 L -3.6838091165313465 29.01331239533061 Z" stroke="#606060" opacity="1" stroke-linejoin="round" stroke-linecap="round" filter="none" class="highcharts-point highcharts-null-point highcharts-color-0 highcharts-name-al-quassim highcharts-key-sa-qs"></path><path fill="#a1d99b" d="M -0.11855156578582163 31.166913848300684 L -0.20733185106178656 31.085253312756127 L -0.3082653424891231 31.15329290119674 L -0.5074971927454474 31.362681629548312 L -0.6081370866251017 31.417039127686618 L -0.9082864126196905 31.465699979116753 L -1.051417071262254 31.57985844534028 L -1.1318066467176977 31.799834054908608 L -1.2951823709683932 32.09904286450382 L -1.3581523865795582 32.150165452791896 L -1.5722806879430946 32.04451095861306 L -1.7598559281315391 32.114739333441655 L -1.9705856407800033 32.12809502719481 L -2.0251560982381926 32.17592699973576 L -2.081684880805523 32.35968959443806 L -2.3078289777646517 32.28497127428489 L -2.4219333478945684 32.309615612281696 L -2.598288018768743 32.497579494808164 L -2.685036606385307 32.551556487730345 L -3.0138855619939022 32.63693410698479 L -3.3471822213759284 32.609942115768675 L -3.5797311712460145 32.69261525452868 L -3.7204456754538873 32.69468556014175 L -4.2399733109061275 32.58975194509044 L -4.427649929500408 32.65854577496759 L -4.251952462183377 32.85688024249545 L -4.217994546686396 33.22383575252738 L -4.145340750184595 33.33846952784943 L -4.039447657048698 33.41550461280236 L -3.222243068563742 33.896042280066666 L -3.0964817216290945 34.001331772955105 L -3.0985311248069496 34.08695797628281 L -3.2843028466963355 34.248627995469505 L -3.3705552716898204 34.42552665764788 L -3.4846182596243844 34.529844549470724 L -3.727338412233298 34.55741091728082 L -3.9712392181847944 34.74458167297401 L -4.708982282023618 34.79671213717325 L -4.851871776638893 34.84559914580942 L -4.996495297067333 34.952455077931496 L -5.633622436377848 35.07780011324028 L -5.761631952717156 35.08681429387951 L -6.0559716504147 35.05619386962327 L -6.4826069331386185 35.03438891617901 L -6.64718584026418 35.116095063950134 L -6.714067529708548 35.26133688643368 L -6.871126997243032 35.4411120257159 L -6.87290797954745 35.59893974759046 L -6.735601648947546 36.014456697412854 L -5.802965363571193 36.238352950538314 L -5.612276056023333 36.372201783000015 L -4.796408543136315 36.197681659583 L -4.476815855556417 36.12499821374674 L -4.375197855846257 36.07071492214878 L -2.8881142241872553 35.12587501181548 L -2.1538974453752657 34.463160017515264 L -0.4057474885747714 33.01343612775304 L -0.3813664321733039 33.00464761185792 L 1.2043649309185367 32.864809721922605 L 1.2714231260162328 32.87937209775191 L 0.8022572393485482 32.687521164528306 L 0.6680795103402345 32.61011437437585 L 0.43841043644616096 32.34958052872403 L 0.09754978957781076 31.701143921528693 L -0.11420585093496095 31.43138878758272 L -0.1699762050691676 31.262660378976797 L -0.11855156578582163 31.166913848300684 L -0.11855156578582163 31.166913848300684 Z" stroke="#606060" opacity="1" stroke-linejoin="round" stroke-linecap="round" filter="none" class="highcharts-point highcharts-null-point highcharts-color-0 highcharts-name-al-hudud-ash-shamaliyah highcharts-key-sa-hs"></path><path fill="#a1d99b" d="M -4.427649929500408 32.65854577496759 L -4.5088085836442025 32.673441621564095 L -4.881288177639877 32.53474484383429 L -5.248480362075064 32.34283509630053 L -5.420080615926893 32.30080816020222 L -5.795619181979727 32.14035298060706 L -5.953597998562303 31.999076942828367 L -6.043789659093434 32.048385209034784 L -6.284868681470277 31.984423373579233 L -6.343914094792159 32.083038227134466 L -6.477489736279468 32.12248718065805 L -6.569089625061137 32.09552758709055 L -6.797462227594185 32.12598682295852 L -6.962823757489937 32.183216931469666 L -7.067095697134793 32.26883763689097 L -7.1286354179097575 32.42379641351543 L -7.1107164604149595 32.76302463772665 L -7.162211433960396 32.83206309675991 L -7.333989900720889 32.71567629539517 L -7.435976439710737 32.53458192270534 L -7.65281307116722 32.53799089657058 L -7.877532529079849 32.61723962267683 L -8.009599687184778 32.63375015318092 L -8.3538513250926 32.56215500574742 L -8.44415370694702 32.592214893693196 L -8.674106185811818 32.93329259274304 L -8.76713323858194 33.01092834603503 L -8.953258946388143 33.06861559870937 L -9.220994076277979 33.06576807583903 L -9.420991493702537 33.039466162607205 L -9.57475021125778 32.97521418530678 L -9.790011555407643 33.02391948751113 L -9.936943179167839 33.02771727332547 L -9.915707140079977 33.204399114800964 L -9.79746234124451 33.53658636843129 L -8.78179056532557 33.28613254084349 L -8.730254810325354 33.294997035836424 L -8.316252492013968 33.5954045082836 L -8.075090619944064 33.952931940198695 L -8.02420941015409 33.99007563876734 L -7.3318889358079495 34.09182953384402 L -7.15354891195578 34.43538035289262 L -7.1172847288373 34.47191792033532 L -6.812856037156292 34.6256544525055 L -7.260270291143058 35.21139171852173 L -7.722776560409246 35.777544558929144 L -6.735601648947546 36.014456697412854 L -6.87290797954745 35.59893974759046 L -6.871126997243032 35.4411120257159 L -6.714067529708548 35.26133688643368 L -6.64718584026418 35.116095063950134 L -6.4826069331386185 35.03438891617901 L -6.0559716504147 35.05619386962327 L -5.761631952717156 35.08681429387951 L -5.633622436377848 35.07780011324028 L -4.996495297067333 34.952455077931496 L -4.851871776638893 34.84559914580942 L -4.708982282023618 34.79671213717325 L -3.9712392181847944 34.74458167297401 L -3.727338412233298 34.55741091728082 L -3.4846182596243844 34.529844549470724 L -3.3705552716898204 34.42552665764788 L -3.2843028466963355 34.248627995469505 L -3.0985311248069496 34.08695797628281 L -3.0964817216290945 34.001331772955105 L -3.222243068563742 33.896042280066666 L -4.039447657048698 33.41550461280236 L -4.145340750184595 33.33846952784943 L -4.217994546686396 33.22383575252738 L -4.251952462183377 32.85688024249545 L -4.427649929500408 32.65854577496759 L -4.427649929500408 32.65854577496759 Z" stroke="#606060" opacity="1" stroke-linejoin="round" stroke-linecap="round" filter="none" class="highcharts-point highcharts-null-point highcharts-color-0 highcharts-name-al-jawf highcharts-key-sa-jf"></path><path fill="#a1d99b" d="M 2.460994299837527 19.65318834309674 L 2.4609651381356694 19.654938814404385 L 2.7452192971954736 22.362459436846365 L 2.980810707274247 24.542002033746467 L 3.2181784318159448 26.92701122106919 L 3.2010228782699577 27.305406340356406 L 3.0439807978884432 27.600748232133814 L 2.7849560885690114 27.852480025262086 L 2.4256958236691752 28.101158038849704 L 2.377446664859996 28.209778713756386 L 2.3292659472130763 29.687736688711038 L 2.266878088536429 29.804895178190627 L 1.9485270984126395 29.928651182979664 L 1.7146557842926173 30.160223216787312 L 1.4091537123236204 30.174131072439547 L 1.1625855293149983 30.349158101234583 L 1.0148955531316535 30.40536272736241 L 0.851072299554358 30.409463113479408 L 0.7450723494860487 30.457531280127533 L 0.5494806423026452 30.649626693317234 L 0.40867507828110855 30.673480095925157 L 0.1291747149564535 30.834673466619314 L 0.044378934930842245 31.010300183969044 L -0.11855156578582163 31.166913848300684 L -0.1699762050691676 31.262660378976797 L -0.11420585093496095 31.43138878758272 L 0.09754978957781076 31.701143921528693 L 0.43841043644616096 32.34958052872403 L 0.6680795103402345 32.61011437437585 L 0.8022572393485482 32.687521164528306 L 1.2714231260162328 32.87937209775191 L 1.3730014511553525 32.901289207804815 L 2.2460277693038244 32.801468701038566 L 2.3068323833479445 32.70140170007979 L 2.41251052440412 32.379133359666085 L 2.481478656064029 32.2967597498034 L 3.2255701051953203 32.31770610403428 L 3.327254272099674 32.17557260418634 L 3.3302531713874144 32.053713043793245 L 3.4144685572423796 31.965242046983562 L 3.404662926371949 31.86572729945045 L 3.677928819164845 31.552478836890078 L 3.6065711824057467 31.527933358931477 L 3.5869348733135555 31.41426145168668 L 3.68054506612486 31.303621381560863 L 3.7729894047536514 31.31485621030719 L 3.882414633358719 31.236127644127304 L 4.04108726037974 31.24074513020358 L 4.1327693283674 30.869329220895246 L 4.186344148150162 30.808320980332873 L 4.335786565414056 30.79384351931218 L 4.513687931651631 30.60821192593525 L 4.7556207912456285 30.50505933493079 L 4.959476772144181 30.317440638423108 L 4.800767345955138 30.341362909070124 L 4.85683485473952 30.10676624572903 L 5.0183626565751425 30.01343102337913 L 5.038233082087707 29.755013983529935 L 4.992529792171348 29.749870271962717 L 4.983161055697384 29.605192960562654 L 4.902703003623678 29.75359726537525 L 4.816485487927969 29.714034156850154 L 4.945407587981516 29.55166537407891 L 4.96899970026842 29.418622948601925 L 5.104013042223514 29.216637405929568 L 4.999464323065781 29.27019106899795 L 5.210539731830702 29.001539478479167 L 5.327207768134617 28.967731237786143 L 5.396684221784338 28.800035845863665 L 5.423024816939242 28.60982167998386 L 5.614245136824594 28.354901737104186 L 5.629190926851678 28.24597905594186 L 5.8813310813897095 28.019957501339803 L 5.9976447829994814 28.0179602976021 L 6.16964795589799 28.09501940689075 L 6.20652562237133 27.97842126183097 L 6.29692567289798 28.08332724123381 L 6.348107092511185 28.026529321729985 L 6.2162350293791215 27.85540161686016 L 6.198010813985964 27.741572306453158 L 6.3280296156358515 27.770008720035417 L 6.489900466921584 27.704405680697523 L 6.522380434993355 27.507680336118025 L 7.538930040722704 26.31835431180164 L 7.585167176310568 26.294732305068003 L 10.166698831939636 26.114028525423503 L 10.243423130668726 26.211914861216844 L 10.744517272103225 25.496166668840292 L 10.761082956904096 25.44860554272113 L 10.243937744778297 23.212265248192686 L 7.186738855200762 21.92103289734622 L 4.216605696668439 21.37869031595688 L 4.120352675354209 21.34101559325871 L 3.213411851057377 20.839630690588326 L 2.6236397900682484 20.06556008967517 L 2.460994299837527 19.65318834309674 L 2.460994299837527 19.65318834309674 Z" stroke="#606060" opacity="1" stroke-linejoin="round" stroke-linecap="round" filter="none" class="highcharts-point highcharts-null-point highcharts-color-0 highcharts-name-ash-sharqiyah highcharts-key-sa-sh"></path><path fill="#a1d99b" d="M -3.1837943507772 23.580525890270525 L -3.2376915205488523 23.411089184151766 L -3.1943216085899357 23.30214944091115 L -3.244728164035669 23.1952915732065 L -3.391303834031928 23.090665118881013 L -3.441730713066444 22.90021297544563 L -3.552344511112881 22.672853846234606 L -3.75466537479482 22.646587447359998 L -3.8069297308739674 22.576482990852302 L -3.930054983348676 22.24150280259497 L -3.9925254960594456 22.2083257990179 L -4.114637908406493 22.244874369666462 L -4.31950355134043 22.45312510228473 L -4.3338217020793595 22.708095463876923 L -4.319490245272467 22.820964774566853 L -4.358122103280419 22.91972332193365 L -4.472392781932169 22.975497832744146 L -4.3559760443212 23.13573136428698 L -4.144770608964948 23.185257672917984 L -3.9982188458163153 23.42846127698533 L -4.0148567109873365 23.613518463175172 L -3.9905344576886073 23.70512504235199 L -3.9044430530102425 23.749768148482495 L -3.812528209175744 23.68810370863555 L -3.707680647050458 23.53387706960849 L -3.4540628747167657 23.57109364452336 L -3.310929688245438 23.639110494328015 L -3.1837943507772 23.580525890270525 L -3.1837943507772 23.580525890270525 Z" stroke="#606060" opacity="1" stroke-linejoin="round" stroke-linecap="round" filter="none" class="highcharts-point highcharts-null-point highcharts-color-0 highcharts-name-al-bahah highcharts-key-sa-ba"></path><path fill="#a1d99b" d="M -3.552344511112881 22.672853846234606 L -3.441730713066444 22.90021297544563 L -3.391303834031928 23.090665118881013 L -3.244728164035669 23.1952915732065 L -3.1943216085899357 23.30214944091115 L -3.2376915205488523 23.411089184151766 L -3.1837943507772 23.580525890270525 L -3.0650228238039436 23.32894636857819 L -2.9855735099357856 23.26806637031999 L -2.829364043238206 23.332832000101554 L -2.563436282506485 23.56812931239059 L -2.231544366118305 23.767994977119297 L -1.9524707160605435 23.824843428074875 L -1.763619181917403 23.806736159589946 L -1.490541035650349 23.941116371921385 L -1.342000215005123 23.80391644321512 L -1.0881905351210157 23.453658507386123 L -1.1858927049408001 23.22983267291806 L -1.2207559178448315 22.977602935372804 L -1.0456251445550766 22.711441157972835 L -0.6224918041519713 22.316896099115393 L -0.6343459185117344 22.11646133894967 L -0.7292073729575348 22.054134424566513 L -0.7870412575079 21.935851537479607 L -0.7510003652599628 21.667028911722486 L -0.8178423077007478 21.546993436509492 L -1.103634767325742 21.41100405612682 L -1.202199594849857 21.247693505808527 L -1.4926112105376705 20.96922181669421 L -1.5538725415181438 20.835350681571082 L -1.5159132160697506 20.644494040893832 L -1.5529013293376426 20.297000536732103 L -1.529720377711174 20.170838880105762 L -1.5624546502257801 20.02599029207902 L -1.7754537075933403 20.121121991788534 L -1.8763135436932137 20.078638724022614 L -1.998818492617788 20.253417778017802 L -2.080819896961366 20.282536515530367 L -2.271038096721374 20.510907383013784 L -2.3066597598492122 20.64955111165475 L -2.451926067947613 20.597723095071863 L -2.5089324289707315 20.51303051547796 L -2.561035481215586 20.33033722773035 L -2.6263949139840146 20.286019490568947 L -2.8971256445791695 20.562132891127394 L -3.1100176957908623 20.587466583913123 L -3.202582816281392 20.72579911932925 L -3.359707028435483 20.750288033342983 L -3.357855006952458 21.024580502029718 L -3.5173116130755226 21.030072915691797 L -3.476302910278661 21.263146143538307 L -3.543989066780722 21.483030608358753 L -3.613186073769233 21.544082365824373 L -3.8181986500433522 21.559780110348072 L -3.906876346202943 21.712243022868243 L -3.8911506996345864 21.970080641961676 L -3.682355860613329 22.039657403794337 L -3.4265428382623266 22.059566045412076 L -3.3635984950997426 22.21157519279461 L -3.4180358156027277 22.42034518215831 L -3.386773288333747 22.630539444218268 L -3.442412235203281 22.687625834566617 L -3.552344511112881 22.672853846234606 L -3.552344511112881 22.672853846234606 Z" stroke="#606060" opacity="1" stroke-linejoin="round" stroke-linecap="round" filter="none" class="highcharts-point highcharts-null-point highcharts-color-0 highcharts-name-`asir highcharts-key-sa-as"></path><path fill="#a1d99b" d="M -1.490541035650349 23.941116371921385 L -1.763619181917403 23.806736159589946 L -1.9524707160605435 23.824843428074875 L -2.231544366118305 23.767994977119297 L -2.563436282506485 23.56812931239059 L -2.829364043238206 23.332832000101554 L -2.9855735099357856 23.26806637031999 L -3.0650228238039436 23.32894636857819 L -3.1837943507772 23.580525890270525 L -3.310929688245438 23.639110494328015 L -3.4540628747167657 23.57109364452336 L -3.707680647050458 23.53387706960849 L -3.812528209175744 23.68810370863555 L -3.9044430530102425 23.749768148482495 L -3.9905344576886073 23.70512504235199 L -4.0148567109873365 23.613518463175172 L -3.9982188458163153 23.42846127698533 L -4.144770608964948 23.185257672917984 L -4.3559760443212 23.13573136428698 L -4.472392781932169 22.975497832744146 L -4.358122103280419 22.91972332193365 L -4.319490245272467 22.820964774566853 L -4.3338217020793595 22.708095463876923 L -4.31950355134043 22.45312510228473 L -4.114637908406493 22.244874369666462 L -3.9925254960594456 22.2083257990179 L -3.930054983348676 22.24150280259497 L -3.8069297308739674 22.576482990852302 L -3.75466537479482 22.646587447359998 L -3.552344511112881 22.672853846234606 L -3.442412235203281 22.687625834566617 L -3.386773288333747 22.630539444218268 L -3.4180358156027277 22.42034518215831 L -3.3635984950997426 22.21157519279461 L -3.4265428382623266 22.059566045412076 L -3.682355860613329 22.039657403794337 L -3.8911506996345864 21.970080641961676 L -3.906876346202943 21.712243022868243 L -3.8181986500433522 21.559780110348072 L -3.613186073769233 21.544082365824373 L -3.543989066780722 21.483030608358753 L -3.476302910278661 21.263146143538307 L -3.5173116130755226 21.030072915691797 L -3.6579230987963625 20.902477674463487 L -3.70434032203752 20.821509345386986 L -3.832913557714492 20.99781403557173 L -3.8607081290116025 21.204682271781078 L -4.094575300395982 21.471255001796294 L -4.050652494993 21.620168382356788 L -4.128940919395337 21.6625135642081 L -4.163693832180876 21.759500777455255 L -4.118359584277905 21.880370952524743 L -4.228801523240028 21.94810179704585 L -4.259524550005672 22.1025307757399 L -4.3404273340682575 22.193891109595 L -4.346088053754379 22.371960341450674 L -4.509752000023075 22.478101918768278 L -4.50135748601006 22.606867335385996 L -4.56440478414838 22.69426757061999 L -4.665031944452741 22.700963805203642 L -4.759563316288386 22.826069568954285 L -4.767975092542793 22.90304033352753 L -5.028878053237285 23.08094709322696 L -5.229862641917545 23.26758316093577 L -5.3813464103077875 23.24702201692391 L -5.54564467114908 23.34909117635776 L -5.658511138177415 23.477192604667295 L -5.806614177290261 23.753123242079763 L -5.789643180602753 23.795984457345977 L -5.998749758736918 24.001387501969397 L -6.116328424255811 24.302398314996058 L -6.2035677535344345 24.441964405353442 L -6.1063733187566465 24.535271734999306 L -6.112272780926336 24.6504166494474 L -6.1780940120343555 24.7298416502231 L -6.184866343897074 24.872861748288447 L -6.308048030001633 25.116696673154564 L -6.320178108691628 25.232088893573437 L -6.248167803591918 25.20280356371247 L -6.200277736713389 25.459963300389443 L -6.087782830537672 25.62384448316005 L -6.161866767474739 25.60095033546175 L -6.142473489142549 25.80016172089727 L -6.298424063311708 26.15490475123026 L -6.244522281625659 26.16294685550562 L -6.312615208969968 26.268592816960947 L -6.392834929408987 26.293075958418058 L -6.395864373585445 26.414961425979936 L -6.484605366309513 26.57728588713097 L -6.543435139560812 26.781752155915083 L -6.2844449586691935 26.80297823445242 L -5.986969960741772 26.478735019391593 L -5.756485512381695 26.472607974841054 L -5.707731710758304 26.357599808953356 L -5.409951250753475 26.429320100216177 L -5.273341264154949 26.425881586649986 L -5.2481172806169925 26.242380883302758 L -5.300272795990989 26.049584084918724 L -5.14902763370327 25.967484523378403 L -5.109065879896196 25.708672242289204 L -4.991490083243549 25.69404693534227 L -4.787396220947496 25.82437359695181 L -4.531328554313615 25.782909649607124 L -4.38405546651844 25.96604123197614 L -4.0862541976809705 26.18832040949766 L -3.882428779817622 26.36680974792702 L -3.761741082097631 26.406988995335094 L -3.728971098356269 26.515610202776408 L -3.877721772255646 26.615214639617914 L -3.795746538862972 26.72941883297161 L -3.4811266619178944 26.874200792684853 L -3.379866631199595 27.01421606578488 L -3.4023434039546574 27.226747843574095 L -3.3461497283575854 27.268834168502405 L -3.149227155033467 27.250369550235398 L -3.1616248160392946 27.076895541563562 L -3.0351944899183634 26.929887962123527 L -2.92689405540905 26.512301342582035 L -2.8030697024030293 26.19525023738217 L -2.6572149617213046 26.107275892204733 L -2.2320558264469406 26.075589939201542 L -2.1371997470075117 25.98201991189681 L -2.163503817447272 25.80167768590437 L -2.137086703165112 25.70568592721897 L -2.000529005275026 25.65502655729979 L -1.8348974444695572 25.687545808780296 L -1.657617096907826 25.62279263177715 L -1.687969991991944 25.416312995880098 L -1.642820528092957 25.0455020197269 L -1.7294792756488686 24.82918558010663 L -1.7209129324822006 24.644749463768335 L -1.7731711593101962 24.43841883764402 L -1.7548295326172794 24.346001808695142 L -1.490541035650349 23.941116371921385 L -1.490541035650349 23.941116371921385 Z" stroke="#606060" opacity="1" stroke-linejoin="round" stroke-linecap="round" filter="none" class="highcharts-point highcharts-null-point highcharts-color-0 highcharts-name-makkah highcharts-key-sa-mk"></path></g></g><g class="highcharts-markers highcharts-series-0 highcharts-map-series highcharts-color-0" data-z-index="0.1" opacity="1" transform="translate(10,54) scale(1 1)" clip-path="none"></g><g class="highcharts-series highcharts-series-1 highcharts-mappoint-series highcharts-color-1" data-z-index="0.1" opacity="1" transform="translate(10,54) scale(1 1)" clip-path="url(#highcharts-rxcvho6-56-)"></g><g class="highcharts-markers highcharts-series-1 highcharts-mappoint-series highcharts-color-1" data-z-index="0.1" opacity="1" transform="translate(10,54) scale(1 1)" clip-path="none"><path fill="#e6194B" d="M 196.5 203.9473699647904 A 8 8 0 1 1 196.50019999999998 203.9473699622904 Z" stroke="#000000" stroke-width="2" opacity="1" class="highcharts-point highcharts-color-1"></path><path fill="#3cb44b" d="M 185.5 200.67478262459286 A 8 8 0 1 1 185.50019999999998 200.67478262209286 Z" stroke="#000000" stroke-width="2" opacity="1" class="highcharts-point highcharts-color-1"></path><path fill="#ffe119" d="M 207.5 203.46338922551004 A 8 8 0 1 1 207.50019999999998 203.46338922301004 Z" stroke="#000000" stroke-width="2" opacity="1" class="highcharts-point highcharts-color-1"></path><path fill="#4363d8" d="M 194.5 146.7546343396518 A 8 8 0 1 1 194.50019999999998 146.7546343371518 Z" stroke="#000000" stroke-width="2" opacity="1" class="highcharts-point highcharts-color-1"></path><path fill="#f58231" d="M 311.5 145.00163636319854 A 8 8 0 1 1 311.5002 145.00163636069854 Z" stroke="#000000" stroke-width="2" opacity="1" class="highcharts-point highcharts-color-1"></path><path fill="#911eb4" d="M 216.5 245.89089189343846 A 8 8 0 1 1 216.50019999999998 245.89089189093846 Z" stroke="#000000" stroke-width="2" opacity="1" class="highcharts-point highcharts-color-1"></path><path fill="#46f0f0" d="M 168.5 107.65181047817997 A 8 8 0 1 1 168.50019999999998 107.65181047567997 Z" stroke="#000000" stroke-width="2" opacity="1" class="highcharts-point highcharts-color-1"></path><path fill="#f032e6" d="M 322.5 155.0060723799662 A 8 8 0 1 1 322.5002 155.0060723774662 Z" stroke="#000000" stroke-width="2" opacity="1" class="highcharts-point highcharts-color-1"></path></g></g><text x="300" class="highcharts-title" data-z-index="4" style="font-size: 22px; font-weight: bold; fill: rgb(51, 51, 51);" text-align="center" y="27" text-anchor="middle" transform-origin="75.609375 25" transform="translate(0,0) scale(1 1)">Saudi Arabia</text><text x="300" class="highcharts-subtitle" data-z-index="4" style="font-size: 0.8em; fill: rgb(102, 102, 102);" text-align="center" y="53" text-anchor="middle" transform-origin="10 15" transform="translate(0,0) scale(1 1)"></text><text x="10" text-anchor="start" class="highcharts-caption" data-z-index="4" style="font-size: 0.8em; fill: rgb(102, 102, 102);" text-align="left" y="397" transform-origin="10 15" transform="translate(0,0) scale(1 1)"></text><g class="highcharts-map-view" data-z-index="4"></g><g class="highcharts-datalabels-group" data-z-index="6"><g class="highcharts-data-labels highcharts-series-1 highcharts-mappoint-series highcharts-color-1" data-z-index="6" opacity="1" transform="translate(10,54) scale(1 1)" clip-path="url(#highcharts-rxcvho6-65-)"><g class="highcharts-label highcharts-data-label highcharts-data-label-color-1" data-z-index="1" filter="none" transform="translate(171,171)"><text x="26.010417938232422" data-z-index="1" y="16" style="font-size: 0.7em; font-weight: bold; fill: rgb(0, 0, 0);" text-anchor="middle"><tspan class="highcharts-text-outline" fill="#FFFFFF" stroke="#FFFFFF" stroke-width="2px" stroke-linejoin="round" style="">Makkah<tspan x="26.010417938232422" dy="0">​</tspan></tspan>Makkah</text></g><g class="highcharts-label highcharts-data-label highcharts-data-label-color-1 highcharts-data-label-hidden" data-z-index="1" filter="none" transform="translate(161,168)" opacity="0" style="pointer-events: none;"><text x="23.83333396911621" data-z-index="1" y="16" style="font-size: 0.7em; font-weight: bold; fill: rgb(0, 0, 0);" text-anchor="middle"><tspan class="highcharts-text-outline" fill="#FFFFFF" stroke="#FFFFFF" stroke-width="2px" stroke-linejoin="round" style="">Jeddah<tspan x="23.83333396911621" dy="0">​</tspan></tspan>Jeddah</text></g><g class="highcharts-label highcharts-data-label highcharts-data-label-color-1 highcharts-data-label-hidden" data-z-index="1" filter="none" transform="translate(193,170)" opacity="0" style="pointer-events: none;"><text x="14.739069938659668" data-z-index="1" y="16" style="font-size: 0.7em; font-weight: bold; fill: rgb(0, 0, 0);" text-anchor="middle"><tspan class="highcharts-text-outline" fill="#FFFFFF" stroke="#FFFFFF" stroke-width="2px" stroke-linejoin="round" style="">Taif<tspan x="14.739069938659668" dy="0">​</tspan></tspan>Taif</text></g><g class="highcharts-label highcharts-data-label highcharts-data-label-color-1" data-z-index="1" filter="none" transform="translate(166,114)"><text x="28.19270896911621" data-z-index="1" y="16" style="font-size: 0.7em; font-weight: bold; fill: rgb(0, 0, 0);" text-anchor="middle"><tspan class="highcharts-text-outline" fill="#FFFFFF" stroke="#FFFFFF" stroke-width="2px" stroke-linejoin="round" style="">Madinah<tspan x="28.19270896911621" dy="0">​</tspan></tspan>Madinah</text></g><g class="highcharts-label highcharts-data-label highcharts-data-label-color-1" data-z-index="1" filter="none" transform="translate(288,112)"><text x="23.104167938232422" data-z-index="1" y="16" style="font-size: 0.7em; font-weight: bold; fill: rgb(0, 0, 0);" text-anchor="middle"><tspan class="highcharts-text-outline" fill="#FFFFFF" stroke="#FFFFFF" stroke-width="2px" stroke-linejoin="round" style="">Riyadh<tspan x="23.104167938232422" dy="0">​</tspan></tspan>Riyadh</text></g><g class="highcharts-label highcharts-data-label highcharts-data-label-color-1" data-z-index="1" filter="none" transform="translate(185,213)"><text x="31.39583396911621" data-z-index="1" y="16" style="font-size: 0.7em; font-weight: bold; fill: rgb(0, 0, 0);" text-anchor="middle"><tspan class="highcharts-text-outline" fill="#FFFFFF" stroke="#FFFFFF" stroke-width="2px" stroke-linejoin="round" style="">Qunfudah<tspan x="31.39583396911621" dy="0">​</tspan></tspan>Qunfudah</text></g><g class="highcharts-label highcharts-data-label highcharts-data-label-color-1" data-z-index="1" filter="none" transform="translate(148,75)"><text x="21.05208396911621" data-z-index="1" y="16" style="font-size: 0.7em; font-weight: bold; fill: rgb(0, 0, 0);" text-anchor="middle"><tspan class="highcharts-text-outline" fill="#FFFFFF" stroke="#FFFFFF" stroke-width="2px" stroke-linejoin="round" style="">Al Ula<tspan x="21.05208396911621" dy="0">​</tspan></tspan>Al Ula</text></g><g class="highcharts-label highcharts-data-label highcharts-data-label-color-1 highcharts-data-label-hidden" data-z-index="1" filter="none" transform="translate(296,122)" opacity="0" style="pointer-events: none;"><text x="26.309581756591797" data-z-index="1" y="16" style="font-size: 0.7em; font-weight: bold; fill: rgb(0, 0, 0);" text-anchor="middle"><tspan class="highcharts-text-outline" fill="#FFFFFF" stroke="#FFFFFF" stroke-width="2px" stroke-linejoin="round" style="">Al Kharj<tspan x="26.309581756591797" dy="0">​</tspan></tspan>Al Kharj</text></g></g></g><g class="highcharts-legend highcharts-no-tooltip" data-z-index="7" text-align="center" transform="translate(256,355)"><rect fill="none" class="highcharts-legend-box" rx="0" ry="0" stroke="#999999" stroke-width="0" filter="none" x="0" y="0" width="88" height="30"></rect><g data-z-index="1"><g><g class="highcharts-legend-item highcharts-mappoint-series highcharts-color-1 highcharts-series-1" data-z-index="1" transform="translate(8,3)"><path fill="none" class="highcharts-graph" stroke-width="0" stroke-linecap="round" d="M 0 13 L 16 13" stroke="#544fc5"></path><path fill="#544fc5" d="M 8 19 A 6 6 0 1 1 8.000199999999966 18.999999996666666 Z" class="highcharts-point" stroke="#000000" stroke-width="2" opacity="1"></path><text x="21" text-anchor="start" data-z-index="2" style="cursor: pointer; font-size: 0.8em; text-decoration: none; fill: rgb(51, 51, 51);" y="17">Branches</text></g></g></g></g><text x="590" class="highcharts-credits" text-anchor="end" data-z-index="8" text-align="right" y="395" style="cursor: pointer; font-size: 0.6em; fill: rgb(153, 153, 153);"><title>Copyright (c) 2025 Highsoft AS, Based on data from Natural Earth</title>Highcharts.com © <a xlink:href="http://www.naturalearthdata.com"><tspan>Natural Earth</tspan></a></text></svg>